<mxfile host="app.diagrams.net" modified="2024-07-26T17:38:02.113Z" agent="Mozilla/5.0 (Macintosh; Intel Mac OS X 10_15_7) AppleWebKit/537.36 (KHTML, like Gecko) Chrome/126.0.0.0 Safari/537.36" etag="0x4jF3koShe2iRO5dbxc" version="24.6.5" type="github">
  <diagram name="Page-1" id="74b105a0-9070-1c63-61bc-23e55f88626e">
    <mxGraphModel dx="1592" dy="775" grid="1" gridSize="10" guides="1" tooltips="1" connect="1" arrows="1" fold="1" page="1" pageScale="1.5" pageWidth="1169" pageHeight="826" background="none" math="0" shadow="0">
      <root>
        <mxCell id="0" style=";html=1;" />
        <mxCell id="1" style=";html=1;" parent="0" />
        <mxCell id="10b056a9c633e61c-30" value="SHORTINETTE ENTITY RELATIONSHIPS" style="text;strokeColor=none;fillColor=none;html=1;fontSize=24;fontStyle=1;verticalAlign=middle;align=center;" parent="1" vertex="1">
          <mxGeometry x="80" y="40" width="1590" height="40" as="geometry" />
        </mxCell>
        <mxCell id="mL3Ycqz0UNbkhGMjZPWM-10" style="edgeStyle=orthogonalEdgeStyle;rounded=0;orthogonalLoop=1;jettySize=auto;html=1;entryX=0.5;entryY=0;entryDx=0;entryDy=0;" edge="1" parent="1" source="mL3Ycqz0UNbkhGMjZPWM-2" target="mL3Ycqz0UNbkhGMjZPWM-7">
          <mxGeometry relative="1" as="geometry" />
        </mxCell>
        <object label="" GitHub="GitHub" id="mL3Ycqz0UNbkhGMjZPWM-2">
          <mxCell style="verticalLabelPosition=bottom;html=1;verticalAlign=top;align=center;strokeColor=none;fillColor=#00BEF2;shape=mxgraph.azure.github_code;pointerEvents=1;" vertex="1" parent="1">
            <mxGeometry x="380" y="490" width="130" height="130" as="geometry" />
          </mxCell>
        </object>
        <mxCell id="mL3Ycqz0UNbkhGMjZPWM-12" style="edgeStyle=orthogonalEdgeStyle;rounded=0;orthogonalLoop=1;jettySize=auto;html=1;" edge="1" parent="1" source="mL3Ycqz0UNbkhGMjZPWM-3" target="mL3Ycqz0UNbkhGMjZPWM-7">
          <mxGeometry relative="1" as="geometry" />
        </mxCell>
        <mxCell id="mL3Ycqz0UNbkhGMjZPWM-3" value="" style="image;html=1;image=img/lib/clip_art/computers/Database_128x128.png;points=[[0,0,0,0,0],[0,0.25,0,0,0],[0,0.5,0,0,0],[0,0.75,0,0,0],[0,1,0,0,0],[0.25,0,0,0,0],[0.25,1,0,0,0],[0.5,0,0,0,0],[0.5,1,0,0,0],[0.75,0,0,0,0],[0.75,1,0,0,0],[1,0,0,0,0],[1,0.25,0,0,0],[1,0.5,0,0,0],[1,0.75,0,0,0],[1,1,0,0,0]];" vertex="1" parent="1">
          <mxGeometry x="80" y="820" width="140" height="130" as="geometry" />
        </mxCell>
        <mxCell id="mL3Ycqz0UNbkhGMjZPWM-7" value="" style="shape=image;html=1;verticalAlign=top;verticalLabelPosition=bottom;labelBackgroundColor=#ffffff;imageAspect=0;aspect=fixed;image=https://cdn4.iconfinder.com/data/icons/success-filloutline/64/brain-think-brainstorm-creative-idea-128.png" vertex="1" parent="1">
          <mxGeometry x="380" y="820" width="130" height="130" as="geometry" />
        </mxCell>
        <mxCell id="mL3Ycqz0UNbkhGMjZPWM-11" style="edgeStyle=orthogonalEdgeStyle;rounded=0;orthogonalLoop=1;jettySize=auto;html=1;entryX=0.5;entryY=1;entryDx=0;entryDy=0;entryPerimeter=0;" edge="1" parent="1" source="mL3Ycqz0UNbkhGMjZPWM-7" target="mL3Ycqz0UNbkhGMjZPWM-2">
          <mxGeometry relative="1" as="geometry" />
        </mxCell>
        <mxCell id="mL3Ycqz0UNbkhGMjZPWM-13" style="edgeStyle=orthogonalEdgeStyle;rounded=0;orthogonalLoop=1;jettySize=auto;html=1;entryX=1;entryY=0.5;entryDx=0;entryDy=0;entryPerimeter=0;" edge="1" parent="1" source="mL3Ycqz0UNbkhGMjZPWM-7" target="mL3Ycqz0UNbkhGMjZPWM-3">
          <mxGeometry relative="1" as="geometry" />
        </mxCell>
        <mxCell id="mL3Ycqz0UNbkhGMjZPWM-14" value="" style="image;points=[];aspect=fixed;html=1;align=center;shadow=0;dashed=0;image=img/lib/allied_telesis/buildings/School_Building.svg;" vertex="1" parent="1">
          <mxGeometry x="1430" y="706.38" width="205" height="207.24" as="geometry" />
        </mxCell>
        <mxCell id="mL3Ycqz0UNbkhGMjZPWM-17" value="SHORT" style="shape=folder;xSize=90;align=left;spacingLeft=10;align=left;verticalAlign=top;spacingLeft=5;spacingTop=-4;tabWidth=70;tabHeight=20;tabPosition=left;html=1;recursiveResize=0;" vertex="1" parent="1">
          <mxGeometry x="630" y="630" width="440" height="310" as="geometry" />
        </mxCell>
        <mxCell id="mL3Ycqz0UNbkhGMjZPWM-24" value="MODULE" style="shape=folder;xSize=90;align=left;spacingLeft=10;align=left;verticalAlign=top;spacingLeft=5;spacingTop=-4;tabWidth=70;tabHeight=20;tabPosition=left;html=1;recursiveResize=0;" vertex="1" parent="1">
          <mxGeometry x="640" y="730" width="420" height="200" as="geometry" />
        </mxCell>
        <mxCell id="mL3Ycqz0UNbkhGMjZPWM-25" value="EXERCISE" style="shape=folder;xSize=90;align=left;spacingLeft=10;align=left;verticalAlign=top;spacingLeft=5;spacingTop=-4;tabWidth=70;tabHeight=20;tabPosition=left;html=1;recursiveResize=0;" vertex="1" parent="1">
          <mxGeometry x="650" y="810" width="400" height="110" as="geometry" />
        </mxCell>
        <mxCell id="mL3Ycqz0UNbkhGMjZPWM-26" value="&lt;ul&gt;&lt;li style=&quot;text-align: left;&quot;&gt;StartModule()&lt;/li&gt;&lt;li style=&quot;text-align: left;&quot;&gt;EndModule()&lt;/li&gt;&lt;li style=&quot;text-align: left;&quot;&gt;GradeModule()&lt;/li&gt;&lt;li style=&quot;text-align: left;&quot;&gt;Struct[] Modules&lt;/li&gt;&lt;/ul&gt;" style="text;strokeColor=none;align=center;fillColor=none;html=1;verticalAlign=middle;whiteSpace=wrap;rounded=0;" vertex="1" parent="1">
          <mxGeometry x="600" y="650" width="150" height="80" as="geometry" />
        </mxCell>
        <mxCell id="mL3Ycqz0UNbkhGMjZPWM-27" value="&lt;ul&gt;&lt;li style=&quot;&quot;&gt;Run() -&amp;gt; result&lt;/li&gt;&lt;li style=&quot;&quot;&gt;Struct[] Exercises&lt;/li&gt;&lt;li style=&quot;&quot;&gt;Int MinimumGrade&lt;/li&gt;&lt;/ul&gt;" style="text;strokeColor=none;align=left;fillColor=none;html=1;verticalAlign=middle;whiteSpace=wrap;rounded=0;" vertex="1" parent="1">
          <mxGeometry x="620" y="750" width="150" height="60" as="geometry" />
        </mxCell>
        <mxCell id="mL3Ycqz0UNbkhGMjZPWM-32" value="&lt;ul&gt;&lt;li style=&quot;&quot;&gt;Run() -&amp;gt; result&lt;/li&gt;&lt;li style=&quot;&quot;&gt;Int Score&lt;/li&gt;&lt;li style=&quot;&quot;&gt;String[] Allowed*&lt;/li&gt;&lt;li style=&quot;&quot;&gt;String TurnIn*&lt;/li&gt;&lt;/ul&gt;" style="text;strokeColor=none;align=left;fillColor=none;html=1;verticalAlign=middle;whiteSpace=wrap;rounded=0;" vertex="1" parent="1">
          <mxGeometry x="630" y="840" width="140" height="60" as="geometry" />
        </mxCell>
        <mxCell id="mL3Ycqz0UNbkhGMjZPWM-33" value="&lt;font style=&quot;font-size: 48px;&quot;&gt;SHORT&lt;/font&gt;" style="text;strokeColor=none;align=center;fillColor=none;html=1;verticalAlign=middle;whiteSpace=wrap;rounded=0;" vertex="1" parent="1">
          <mxGeometry x="750" y="660" width="300" height="80" as="geometry" />
        </mxCell>
      </root>
    </mxGraphModel>
  </diagram>
</mxfile>
